<svg xmlns="http://www.w3.org/2000/svg" width="23.625" height="23.625" viewBox="0 0 23.625 23.625">
  <path id="Path_260" data-name="Path 260" d="M4.531,10.438H6.219V24.781a.844.844,0,1,1-1.688,0Zm8.438,14.344a.844.844,0,1,0,1.688,0V17.188H12.969ZM14.656,2.844a.844.844,0,1,0-1.688,0v7.594h1.688Zm6.75,21.938a.844.844,0,1,0,1.688,0V10.438H21.406Zm2.531-20.25H20.563a1.688,1.688,0,0,0-1.688,1.688V7.906a1.688,1.688,0,0,0,1.688,1.688h3.375a1.688,1.688,0,0,0,1.688-1.688V6.219A1.688,1.688,0,0,0,23.938,4.531ZM15.5,11.281H12.125a1.688,1.688,0,0,0-1.688,1.688v1.688a1.688,1.688,0,0,0,1.688,1.688H15.5a1.688,1.688,0,0,0,1.688-1.688V12.969A1.688,1.688,0,0,0,15.5,11.281ZM7.063,4.531H3.688A1.688,1.688,0,0,0,2,6.219V7.906A1.688,1.688,0,0,0,3.688,9.594H7.063A1.688,1.688,0,0,0,8.75,7.906V6.219A1.688,1.688,0,0,0,7.063,4.531ZM23.094,2.844a.844.844,0,1,0-1.688,0v.844h1.688Zm-16.875,0a.844.844,0,1,0-1.688,0v.844H6.219Z" transform="translate(-2 -2)" fill="#9b9bac"/>
</svg>
