<svg id="Barcode" xmlns="http://www.w3.org/2000/svg" width="39.937" height="67.586" viewBox="0 0 39.937 67.586">
  <path id="Path_1098" data-name="Path 1098" d="M26.113-43.009h3.072v3.072H26.113Zm-1.536,6.144c9.19-.143,7.534,1.5,7.68-7.68a1.536,1.536,0,0,0-1.536-1.536H24.577a1.535,1.535,0,0,0-1.536,1.536V-38.4a1.535,1.535,0,0,0,1.536,1.536" transform="translate(0 67.586)" fill="#04062f"/>
  <path id="Path_1099" data-name="Path 1099" d="M10.752-27.649h3.072v3.072H10.752ZM9.216-21.5c9.19-.143,7.535,1.5,7.681-7.68a1.537,1.537,0,0,0-1.537-1.536H9.216A1.536,1.536,0,0,0,7.68-29.185v6.144A1.536,1.536,0,0,0,9.216-21.5" transform="translate(0 67.586)" fill="#04062f"/>
  <path id="Path_1100" data-name="Path 1100" d="M10.752-43.009h3.072v3.072H10.752ZM9.216-36.865c9.19-.143,7.535,1.5,7.681-7.68a1.537,1.537,0,0,0-1.537-1.536H9.216A1.536,1.536,0,0,0,7.68-44.545V-38.4a1.536,1.536,0,0,0,1.536,1.536" transform="translate(0 67.586)" fill="#04062f"/>
  <path id="Path_1101" data-name="Path 1101" d="M0,0H3.072A1.536,1.536,0,0,0,4.608-1.536,1.536,1.536,0,0,0,3.072-3.072H0A1.536,1.536,0,0,0,0,0" transform="translate(9.216 35.329)" fill="#04062f"/>
  <path id="Path_1102" data-name="Path 1102" d="M0,0A1.536,1.536,0,0,0-1.536,1.536V4.608H-3.072a1.536,1.536,0,0,0,0,3.072H0A1.536,1.536,0,0,0,1.536,6.144V1.536A1.536,1.536,0,0,0,0,0" transform="translate(30.721 38.401)" fill="#04062f"/>
  <path id="Path_1103" data-name="Path 1103" d="M0,0A1.536,1.536,0,0,0,1.536-1.536V-3.072A1.536,1.536,0,0,0,3.072-4.608V-7.68A1.536,1.536,0,0,0,0-7.68v1.536A1.536,1.536,0,0,0-1.536-4.608v3.072A1.536,1.536,0,0,0,0,0" transform="translate(24.577 41.473)" fill="#04062f"/>
  <path id="Path_1104" data-name="Path 1104" d="M0,0A1.536,1.536,0,0,0-1.536,1.536V3.072A1.536,1.536,0,0,0,0,4.608,1.536,1.536,0,0,0,1.536,3.072V1.536A1.536,1.536,0,0,0,0,0" transform="translate(30.721 32.257)" fill="#04062f"/>
  <path id="Path_1105" data-name="Path 1105" d="M0,0A1.536,1.536,0,0,0,1.536,1.536H4.608A1.536,1.536,0,0,0,6.144,0V-3.072a1.536,1.536,0,0,0-3.072,0v1.536H1.536A1.536,1.536,0,0,0,0,0" transform="translate(15.36 33.793)" fill="#04062f"/>
  <path id="Path_1106" data-name="Path 1106" d="M0,0A1.536,1.536,0,0,0,1.536-1.536V-4.608A1.536,1.536,0,0,0,0-6.144,1.536,1.536,0,0,0-1.536-4.608v3.072A1.536,1.536,0,0,0,0,0" transform="translate(19.969 27.648)" fill="#04062f"/>
  <path id="Path_1107" data-name="Path 1107" d="M0,0A1.536,1.536,0,0,0,1.536,1.536H4.608A1.535,1.535,0,0,0,6.144,0,1.535,1.535,0,0,0,4.608-1.536H1.536A1.536,1.536,0,0,0,0,0" transform="translate(18.433 44.545)" fill="#04062f"/>
  <path id="Path_1108" data-name="Path 1108" d="M0,0A1.536,1.536,0,0,0,1.536-1.536V-3.072A1.536,1.536,0,0,0,0-4.608,1.536,1.536,0,0,0-1.536-3.072v1.536A1.536,1.536,0,0,0,0,0" transform="translate(19.969 41.473)" fill="#04062f"/>
  <path id="Path_1109" data-name="Path 1109" d="M0-67.586H39.937V0H0Z" transform="translate(0 67.586)" fill="none"/>
</svg>
