<svg xmlns="http://www.w3.org/2000/svg" width="16" height="16" viewBox="0 0 16 16">
  <g id="calendar" transform="translate(-32 -32.001)">
    <path id="Path_214" data-name="Path 214" d="M48,35.43a2.286,2.286,0,0,0-2.286-2.286h-.571v-.555A.583.583,0,0,0,44.6,32a.571.571,0,0,0-.6.571v.571H36v-.555A.583.583,0,0,0,35.456,32a.571.571,0,0,0-.6.571v.571h-.571A2.286,2.286,0,0,0,32,35.43v.429a.143.143,0,0,0,.143.143H47.857A.143.143,0,0,0,48,35.859Z" fill="#f5f5f7"/>
    <path id="Path_215" data-name="Path 215" d="M32,184.571a2.286,2.286,0,0,0,2.286,2.286H45.714A2.286,2.286,0,0,0,48,184.571v-8.464a.107.107,0,0,0-.107-.107H32.107a.107.107,0,0,0-.107.107Zm12.286-7.429a.857.857,0,1,1-.857.857A.857.857,0,0,1,44.286,177.143Zm0,2.857a.857.857,0,1,1-.857.857A.857.857,0,0,1,44.286,180Zm-2.857-2.857a.857.857,0,1,1-.857.857A.857.857,0,0,1,41.429,177.143Zm0,2.857a.857.857,0,1,1-.857.857A.857.857,0,0,1,41.429,180Zm0,2.857a.857.857,0,1,1-.857.857A.857.857,0,0,1,41.429,182.857ZM38.571,180a.857.857,0,1,1-.857.857A.857.857,0,0,1,38.571,180Zm0,2.857a.857.857,0,1,1-.857.857A.857.857,0,0,1,38.571,182.857ZM35.714,180a.857.857,0,1,1-.857.857A.857.857,0,0,1,35.714,180Zm0,2.857a.857.857,0,1,1-.857.857A.857.857,0,0,1,35.714,182.857Z" transform="translate(0 -138.856)" fill="#f5f5f7"/>
  </g>
</svg>
