<svg xmlns="http://www.w3.org/2000/svg" width="19.498" height="24" viewBox="0 0 19.498 24">
  <g id="Group_1401" data-name="Group 1401" transform="translate(-47.998)">
    <path id="Path_272" data-name="Path 272" d="M127.4,0h-10.5A3,3,0,0,0,114,2.25h10.686a3.468,3.468,0,0,1,3.468,3.468v14.29l1.031.825a.75.75,0,0,0,.906.023.769.769,0,0,0,.312-.629V3A3,3,0,0,0,127.4,0Z" transform="translate(-62.908)" fill="#f5f5f7"/>
    <path id="Path_273" data-name="Path 273" d="M60.747,80H51a3,3,0,0,0-3,3V99.48a.767.767,0,0,0,.309.627.75.75,0,0,0,.924-.033l6.641-5.595,6.641,5.593a.75.75,0,0,0,.919.037.769.769,0,0,0,.314-.63V83A3,3,0,0,0,60.747,80Z" transform="translate(0 -76.25)" fill="#f5f5f7"/>
  </g>
</svg>
