<svg xmlns="http://www.w3.org/2000/svg" width="172.71" height="188.264" viewBox="0 0 172.71 188.264">
  <g id="Group_1073" data-name="Group 1073" transform="translate(-46 -493.241)">
    <g id="Group_1072" data-name="Group 1072" transform="translate(46 493.241)">
      <path id="Path_1010" data-name="Path 1010" d="M2.007,0A14.169,14.169,0,1,1-12.162,14.169,14.169,14.169,0,0,1,2.007,0" transform="translate(92.612 15.007)" fill="#040630"/>
      <path id="Path_1011" data-name="Path 1011" d="M6.948,3.214A22.509,22.509,0,0,0,3.28-9.16a22.518,22.518,0,0,0-14.3-9.813A22.52,22.52,0,0,0-28.077-15.8a22.5,22.5,0,0,0-8.41,9.917c-2.492.961-4.629,3.617-5.358,7.058C-42.868,6-40.732,10.542-37.075,11.315a5.382,5.382,0,0,0,2.8-.168l2.711-12.8a16.448,16.448,0,0,1,6.807-9.038,16.466,16.466,0,0,1,12.471-2.321A16.465,16.465,0,0,1-1.827-5.839,16.46,16.46,0,0,1,.5,6.632L-1.834,18.017A5.391,5.391,0,0,0,.659,19.305c3.656.774,7.448-2.511,8.471-7.337.747-3.525-.2-6.89-2.182-8.754" transform="translate(110.815 22.733)" fill="#040630"/>
      <path id="Path_1012" data-name="Path 1012" d="M3.094,5.545A14.515,14.515,0,0,1-11.422-8.97,14.515,14.515,0,0,1,3.094-23.486,14.515,14.515,0,0,1,17.609-8.97,14.514,14.514,0,0,1,3.094,5.545m0,31.061a10.049,10.049,0,1,1,10.05-10.048A10.048,10.048,0,0,1,3.094,36.606M20.126-33.6H-13.939a4.8,4.8,0,0,0-4.8,4.8V54.1H24.931V-28.792a4.8,4.8,0,0,0-4.8-4.8" transform="translate(18.744 134.049)" fill="#040630"/>
      <path id="Path_1013" data-name="Path 1013" d="M3.094,5.384A14.515,14.515,0,0,1-11.422-9.131,14.515,14.515,0,0,1,3.094-23.646,14.515,14.515,0,0,1,17.609-9.131,14.515,14.515,0,0,1,3.094,5.384m0,31.061A10.049,10.049,0,1,1,13.142,26.4,10.049,10.049,0,0,1,3.094,36.445M20.126-32.623H-13.939a4.8,4.8,0,0,0-4.8,4.8V55.07H24.931V-27.818a4.8,4.8,0,0,0-4.8-4.8" transform="translate(147.779 133.195)" fill="#040630"/>
      <path id="Path_1014" data-name="Path 1014" d="M.762,0a5.38,5.38,0,1,1-5.38,5.38A5.38,5.38,0,0,1,.762,0" transform="translate(21.077 119.361)" fill="#040630"/>
      <path id="Path_1015" data-name="Path 1015" d="M.528,0A3.725,3.725,0,1,1-3.2,3.725,3.724,3.724,0,0,1,.528,0" transform="translate(21.311 156.882)" fill="#040630"/>
      <path id="Path_1016" data-name="Path 1016" d="M.762,0a5.38,5.38,0,1,1-5.38,5.38A5.38,5.38,0,0,1,.762,0" transform="translate(150.111 118.339)" fill="#040630"/>
      <path id="Path_1017" data-name="Path 1017" d="M.528,0A3.725,3.725,0,1,1-3.2,3.725,3.724,3.724,0,0,1,.528,0" transform="translate(150.345 155.866)" fill="#040630"/>
      <path id="Path_1018" data-name="Path 1018" d="M13.029,10.077C6.49,4.673-1.016-1.494-4.76-4.568a12.65,12.65,0,0,0-5.417-2.6L-39.9-13.5l-22.915-7.774-3.544-31.852a6.317,6.317,0,0,0-6.973-5.6,6.337,6.337,0,0,0-5.569,7.01l3.993,35.867a6.334,6.334,0,0,0,4.254,5.306l25.518,8.658-6.679,31.718c.195.076.387.157.573.248a7.434,7.434,0,0,1,3.282-.759c7.294,0,7.042-.026,7.735.071a7.455,7.455,0,0,1,4.986-1.91h14.635l7.888-7.548,2.646-12.564,9.606,7.963-14.176,13.7a6.334,6.334,0,0,0-1.933,4.573H-35.241a1.426,1.426,0,0,0-1.421,1.429v6.224h-3.179V36.877a1.426,1.426,0,0,0-1.421-1.429h-6.7a1.425,1.425,0,0,0-1.421,1.429v4.386h-3.722V36.877a1.425,1.425,0,0,0-1.421-1.429h-6.7a1.426,1.426,0,0,0-1.421,1.429v4.392a4.816,4.816,0,0,0-4.7,4.825v83.345H7.391V46.093a4.818,4.818,0,0,0-4.806-4.831H.287V35.038a1.426,1.426,0,0,0-1.421-1.429h-.029L13.389,19.546a6.37,6.37,0,0,0-.36-9.469" transform="translate(116.612 58.766)" fill="#040630"/>
      <path id="Path_1019" data-name="Path 1019" d="M0-160.706H172.71V27.557H0Z" transform="translate(0 160.707)" fill="none"/>
    </g>
  </g>
</svg>
