<svg xmlns="http://www.w3.org/2000/svg" xmlns:xlink="http://www.w3.org/1999/xlink" width="328.597" height="325.782" viewBox="0 0 328.597 325.782">
  <defs>
    <linearGradient id="linear-gradient" x1="0.096" y1="0.772" x2="1.057" y2="0.185" gradientUnits="objectBoundingBox">
      <stop offset="0" stop-color="#aa32f8"/>
      <stop offset="0.444" stop-color="#c23df2"/>
      <stop offset="1" stop-color="#b142cd"/>
    </linearGradient>
    <filter id="Path_84" x="0" y="0" width="259.201" height="312.588" filterUnits="userSpaceOnUse">
      <feOffset dy="3" input="SourceAlpha"/>
      <feGaussianBlur stdDeviation="1" result="blur"/>
      <feFlood flood-color="#040630" flood-opacity="0.122"/>
      <feComposite operator="in" in2="blur"/>
      <feComposite in="SourceGraphic"/>
    </filter>
    <filter id="Path_85" x="118.444" y="118.442" width="68.389" height="64.511" filterUnits="userSpaceOnUse">
      <feOffset dy="3" input="SourceAlpha"/>
      <feGaussianBlur stdDeviation="1" result="blur-2"/>
      <feFlood flood-color="#040630" flood-opacity="0.122"/>
      <feComposite operator="in" in2="blur-2"/>
      <feComposite in="SourceGraphic"/>
    </filter>
    <filter id="Path_86" x="145.644" y="54.091" width="182.953" height="271.691" filterUnits="userSpaceOnUse">
      <feOffset dy="3" input="SourceAlpha"/>
      <feGaussianBlur stdDeviation="1" result="blur-3"/>
      <feFlood flood-color="#040630" flood-opacity="0.122"/>
      <feComposite operator="in" in2="blur-3"/>
      <feComposite in="SourceGraphic"/>
    </filter>
  </defs>
  <g id="dj-icon" transform="translate(3)">
    <g transform="matrix(1, 0, 0, 1, -3, 0)" filter="url(#Path_84)">
      <path id="Path_84-2" data-name="Path 84" d="M153.294,2.233A153.294,153.294,0,0,0,44.9,263.922a152.29,152.29,0,0,0,108.4,44.9,154.881,154.881,0,0,0,29.909-2.9,181.243,181.243,0,0,1-34.547-61.966l-12.09-37.361a53.735,53.735,0,1,1,44.264-97.2V93.786a27.162,27.162,0,0,1,35.441-25.875V64.6A27.153,27.153,0,0,1,253.2,39.25,152.155,152.155,0,0,0,153.294,2.233Z" transform="translate(3 -2.23)" fill="url(#linear-gradient)"/>
    </g>
    <g transform="matrix(1, 0, 0, 1, -3, 0)" filter="url(#Path_85)">
      <path id="Path_85-2" data-name="Path 85" d="M222.835,190.216a34.828,34.828,0,0,0-25.56,58.511,28.062,28.062,0,0,1,14.409-32.474l3.158-1.61q.219-.112.444-.212a28.11,28.11,0,0,1,35.087,10.323v-21.01A34.8,34.8,0,0,0,222.835,190.216Z" transform="translate(-66.54 -71.77)" fill="url(#linear-gradient)"/>
    </g>
    <g transform="matrix(1, 0, 0, 1, -3, 0)" filter="url(#Path_86)">
      <path id="Path_86-2" data-name="Path 86" d="M399.833,133.807a8.283,8.283,0,0,0-8.274,8.273V200.7a9.447,9.447,0,1,1-18.894,0V105.214a8.273,8.273,0,0,0-16.547,0V200.7a9.447,9.447,0,0,1-18.895,0V96.355a8.273,8.273,0,1,0-16.547,0V201.548a9.447,9.447,0,1,1-18.895,0v-76a8.273,8.273,0,1,0-16.547,0V226.9a9.447,9.447,0,0,1-17.914,4.191l-16.251-32.824a9.275,9.275,0,0,0-11.935-4.449l-2.9,1.48a9.261,9.261,0,0,0-4.624,11.148l20.53,63.444a162.608,162.608,0,0,0,34.3,59.364l9.73,10.764a9.446,9.446,0,0,1,2.439,6.335v7.414h88.834l.065-7.5a9.453,9.453,0,0,1,1.121-4.38,164.222,164.222,0,0,0,19.413-77.238l.059-122.582A8.282,8.282,0,0,0,399.833,133.807Z" transform="translate(-82.51 -33.99)" fill="url(#linear-gradient)"/>
    </g>
  </g>
</svg>
