<svg xmlns="http://www.w3.org/2000/svg" width="19.286" height="18" viewBox="0 0 19.286 18">
  <g id="home-icon" transform="translate(-16 -32)">
    <path id="Path_145" data-name="Path 145" d="M71.842,99.15a.321.321,0,0,0-.444,0L64,106.216a.321.321,0,0,0-.1.233v6.632a1.286,1.286,0,0,0,1.286,1.286h3.861a.643.643,0,0,0,.643-.643v-5.464a.321.321,0,0,1,.321-.321h3.214a.321.321,0,0,1,.321.321v5.464a.643.643,0,0,0,.643.643h3.86a1.286,1.286,0,0,0,1.286-1.286v-6.632a.321.321,0,0,0-.1-.233Z" transform="translate(-45.976 -64.367)" fill="#fff"/>
    <path id="Path_146" data-name="Path 146" d="M35.081,40.524l-3.005-2.875V33.286a.643.643,0,0,0-.643-.643H29.5a.643.643,0,0,0-.643.643v1.286l-2.327-2.225A1.251,1.251,0,0,0,25.642,32h0a1.247,1.247,0,0,0-.89.347l-8.546,8.176a.655.655,0,0,0-.054.9.643.643,0,0,0,.931.043L25.422,33.5a.321.321,0,0,1,.444,0L34.2,41.464a.643.643,0,0,0,.908-.018A.659.659,0,0,0,35.081,40.524Z" transform="translate(0)" fill="#fff"/>
  </g>
</svg>
