<svg xmlns="http://www.w3.org/2000/svg" width="18" height="15.429" viewBox="0 0 18 15.429">
  <path id="file-tray" d="M49.986,72.225l-1.286-6.1A2.455,2.455,0,0,0,46.143,64H35.857a2.567,2.567,0,0,0-1.692.56,2.608,2.608,0,0,0-.867,1.563l-1.286,6.1a.669.669,0,0,0-.013.133v4.5a2.571,2.571,0,0,0,2.571,2.571H47.428A2.571,2.571,0,0,0,50,76.857v-4.5A.669.669,0,0,0,49.986,72.225ZM34.558,66.383v-.011a1.179,1.179,0,0,1,1.3-1.085H46.143a1.171,1.171,0,0,1,1.3,1.081.107.107,0,0,0,0,.016l1.082,5.138a.161.161,0,0,1-.158.194h-4.8a.64.64,0,0,0-.643.636,1.929,1.929,0,0,1-3.857,0,.64.64,0,0,0-.643-.636h-4.8a.161.161,0,0,1-.157-.194Z" transform="translate(-32 -64)" fill="#fff"/>
</svg>
