<svg xmlns="http://www.w3.org/2000/svg" width="14.538" height="21" viewBox="0 0 14.538 21">
  <g id="mic-icon" transform="translate(-112 -47.999)">
    <path id="Line_53" data-name="Line 53" d="M-8.731-14.385h-6.462A.808.808,0,0,1-16-15.192.808.808,0,0,1-15.192-16h6.462a.808.808,0,0,1,.808.808A.808.808,0,0,1-8.731-14.385Z" transform="translate(131.231 83.384)" fill="#f5f5f7"/>
    <path id="Path_261" data-name="Path 261" d="M119.269,201.692A7.277,7.277,0,0,1,112,194.423v-1.615a.808.808,0,1,1,1.615,0v1.615a5.654,5.654,0,0,0,11.308,0v-1.615a.808.808,0,1,1,1.615,0v1.615A7.277,7.277,0,0,1,119.269,201.692Z" transform="translate(0 -136.731)" fill="#f5f5f7"/>
    <path id="Line_54" data-name="Line 54" d="M-15.192-10.346A.808.808,0,0,1-16-11.154v-4.038A.808.808,0,0,1-15.192-16a.808.808,0,0,1,.808.808v4.038A.808.808,0,0,1-15.192-10.346Z" transform="translate(134.462 79.346)" fill="#f5f5f7"/>
    <path id="Path_262" data-name="Path 262" d="M180.038,61.73a3.979,3.979,0,0,1-2.855-1.217A4.083,4.083,0,0,1,176,57.641v-5.6a4.038,4.038,0,0,1,8.077,0v5.6A4.069,4.069,0,0,1,180.038,61.73Z" transform="translate(-60.769)" fill="#f5f5f7"/>
  </g>
</svg>
