<svg xmlns="http://www.w3.org/2000/svg" width="15.668" height="16" viewBox="0 0 15.668 16">
  <g id="party" transform="translate(-5.305 0)">
    <path id="Path_635" data-name="Path 635" d="M62.1,215.97l-1.535,4.094h0a7.382,7.382,0,0,0,2.37,3.828l1.926-.722A8.439,8.439,0,0,1,62.1,215.97Z" transform="translate(-53.536 -209.222)" fill="#f5f5f7"/>
    <path id="Path_636" data-name="Path 636" d="M6.512,391.34l-1.176,3.137a.469.469,0,0,0,.6.6l2.482-.931A8.409,8.409,0,0,1,6.512,391.34Z" transform="translate(0 -379.112)" fill="#f5f5f7"/>
    <path id="Path_637" data-name="Path 637" d="M140.565,149.51l-1.75-1.75a7.487,7.487,0,0,0,2.228,8.954l1.867-.7A8.461,8.461,0,0,1,140.565,149.51Z" transform="translate(-128.708 -143.143)" fill="#f5f5f7"/>
    <path id="Path_638" data-name="Path 638" d="M244.278,233.04a7.484,7.484,0,0,0,2.4,5.223h0l1.369-.513a.469.469,0,0,0,.167-.771Z" transform="translate(-231.506 -225.758)" fill="#f5f5f7"/>
    <g id="Group_725" data-name="Group 725" transform="translate(16.059 6.521)">
      <path id="Path_639" data-name="Path 639" d="M349.58,210.932a.469.469,0,0,0,.663,0,3.611,3.611,0,0,1,3.5-1.213.469.469,0,1,0,.3-.889,4.5,4.5,0,0,0-4.457,1.439A.469.469,0,0,0,349.58,210.932Z" transform="translate(-349.442 -208.699)" fill="#f5f5f7"/>
    </g>
    <path id="Path_640" data-name="Path 640" d="M233.57,15.383a4.5,4.5,0,0,0,1.439-4.457.469.469,0,0,0-.889.3,3.611,3.611,0,0,1-1.213,3.5.469.469,0,0,0,.663.663Z" transform="translate(-220.357 -10.274)" fill="#f5f5f7"/>
    <path id="Path_641" data-name="Path 641" d="M285.94,6.1a.469.469,0,0,0,.66.666c.242-.121.994.332,1.411-.086s-.026-1.15.084-1.408c.258-.11.994.329,1.408-.084s-.026-1.15.084-1.408c.259-.11.994.329,1.408-.084s-.026-1.15.084-1.408c.257-.109.995.329,1.408-.084s-.034-1.17.086-1.411a.469.469,0,0,0-.666-.66,1.35,1.35,0,0,0-.228,1.264,1.35,1.35,0,0,0-1.264.228,1.349,1.349,0,0,0-.228,1.264,1.349,1.349,0,0,0-1.264.228,1.35,1.35,0,0,0-.228,1.264,1.349,1.349,0,0,0-1.264.228,1.349,1.349,0,0,0-.228,1.264,1.35,1.35,0,0,0-1.264.228Z" transform="translate(-271.733)" fill="#f5f5f7"/>
    <path id="Path_642" data-name="Path 642" d="M350.243,43.227a.469.469,0,1,0-.663,0A.469.469,0,0,0,350.243,43.227Z" transform="translate(-333.384 -41.101)" fill="#f5f5f7"/>
    <circle id="Ellipse_89" data-name="Ellipse 89" cx="0.469" cy="0.469" r="0.469" transform="translate(19.373 4.64)" fill="#f5f5f7"/>
    <path id="Path_643" data-name="Path 643" d="M434.432,297.123a.469.469,0,1,0,.663,0A.469.469,0,0,0,434.432,297.123Z" transform="translate(-415.584 -287.706)" fill="#f5f5f7"/>
    <path id="Path_644" data-name="Path 644" d="M201.75,64.44a.469.469,0,1,0-.663,0A.469.469,0,0,0,201.75,64.44Z" transform="translate(-189.531 -61.651)" fill="#f5f5f7"/>
  </g>
</svg>
