<svg xmlns="http://www.w3.org/2000/svg" width="15.273" height="24" viewBox="0 0 15.273 24">
  <g id="pause" transform="translate(-144 -80)">
    <path id="Path_258" data-name="Path 258" d="M148.364,104h-3.273A1.091,1.091,0,0,1,144,102.909V81.091A1.091,1.091,0,0,1,145.091,80h3.273a1.091,1.091,0,0,1,1.091,1.091v21.818A1.091,1.091,0,0,1,148.364,104Z" fill="#f5f5f7"/>
    <path id="Path_259" data-name="Path 259" d="M292.364,104h-3.273A1.091,1.091,0,0,1,288,102.909V81.091A1.091,1.091,0,0,1,289.091,80h3.273a1.091,1.091,0,0,1,1.091,1.091v21.818A1.091,1.091,0,0,1,292.364,104Z" transform="translate(-134.182)" fill="#f5f5f7"/>
  </g>
</svg>
