<svg xmlns="http://www.w3.org/2000/svg" width="18.172" height="18" viewBox="0 0 18.172 18">
  <path id="cog" d="M66.172,58.7a.462.462,0,0,0-.409-.434l-1.12-.181a.237.237,0,0,1-.2-.2c-.021-.138-.044-.28-.074-.416a.241.241,0,0,1,.115-.256l1-.553a.452.452,0,0,0,.218-.56l-.173-.476a.451.451,0,0,0-.53-.284l-1.116.218a.241.241,0,0,1-.254-.123c-.065-.122-.136-.246-.21-.368a.245.245,0,0,1,.019-.284l.743-.858a.455.455,0,0,0,.017-.6l-.324-.389a.447.447,0,0,0-.593-.087l-.977.587a.235.235,0,0,1-.279-.028c-.108-.095-.218-.186-.322-.27a.238.238,0,0,1-.075-.271l.4-1.066a.452.452,0,0,0-.188-.571l-.441-.257a.45.45,0,0,0-.588.124l-.714.9a.2.2,0,0,1-.245.075c-.027-.011-.252-.1-.427-.162a.237.237,0,0,1-.163-.228l.017-1.139a.458.458,0,0,0-.374-.475l-.5-.087a.456.456,0,0,0-.513.313l-.371,1.084a.239.239,0,0,1-.234.159h-.426a.24.24,0,0,1-.232-.16l-.37-1.078a.457.457,0,0,0-.514-.317l-.5.087a.457.457,0,0,0-.374.471l.017,1.143a.238.238,0,0,1-.169.229l-.416.159a.237.237,0,0,1-.259-.092l-.71-.874a.45.45,0,0,0-.588-.126l-.439.255a.453.453,0,0,0-.189.575l.4,1.063a.242.242,0,0,1-.074.272c-.106.087-.215.175-.323.272a.235.235,0,0,1-.277.028l-.966-.6a.454.454,0,0,0-.595.087l-.323.388a.45.45,0,0,0,.016.6l.746.857a.237.237,0,0,1,.02.282c-.075.119-.146.244-.211.369a.242.242,0,0,1-.256.123l-1.114-.215a.452.452,0,0,0-.53.284l-.175.475a.453.453,0,0,0,.218.561l1,.553a.235.235,0,0,1,.116.259l-.01.055c-.023.122-.044.237-.064.36a.239.239,0,0,1-.195.2l-1.122.181a.455.455,0,0,0-.4.449v.506a.448.448,0,0,0,.4.448l1.122.181a.236.236,0,0,1,.2.2c.021.138.044.28.074.416a.241.241,0,0,1-.115.256l-.995.553a.452.452,0,0,0-.218.56l.175.476a.451.451,0,0,0,.53.284l1.116-.216a.24.24,0,0,1,.254.123c.066.122.136.246.21.368a.244.244,0,0,1-.019.284l-.743.857a.455.455,0,0,0-.022.6l.324.389a.447.447,0,0,0,.593.087l.977-.587a.235.235,0,0,1,.279.028c.108.095.218.186.322.27a.239.239,0,0,1,.076.271l-.4,1.066a.452.452,0,0,0,.188.571l.442.255a.45.45,0,0,0,.588-.123l.723-.889a.21.21,0,0,1,.228-.08c.152.063.254.1.434.159a.238.238,0,0,1,.164.228L54.881,67.4a.459.459,0,0,0,.374.475l.5.087a.456.456,0,0,0,.513-.313l.371-1.082a.238.238,0,0,1,.234-.159H57.3a.24.24,0,0,1,.232.16l.37,1.078a.458.458,0,0,0,.437.324.425.425,0,0,0,.078-.007l.5-.087a.457.457,0,0,0,.374-.471l-.017-1.143a.237.237,0,0,1,.164-.227c.168-.056.286-.1.389-.142l.026-.01a.191.191,0,0,1,.239.057l.732.9a.45.45,0,0,0,.587.123l.44-.255a.452.452,0,0,0,.188-.572l-.4-1.063a.241.241,0,0,1,.074-.272c.106-.087.215-.175.323-.272a.235.235,0,0,1,.279-.027l.978.585A.454.454,0,0,0,63.883,65l.323-.389a.45.45,0,0,0-.016-.6l-.745-.859a.237.237,0,0,1-.02-.282c.075-.118.146-.243.211-.369a.242.242,0,0,1,.256-.123l1.113.217a.452.452,0,0,0,.53-.284l.173-.475a.453.453,0,0,0-.218-.561l-1-.553a.236.236,0,0,1-.114-.257l.01-.055c.023-.122.044-.237.064-.36a.239.239,0,0,1,.195-.2l1.122-.181a.456.456,0,0,0,.4-.449ZM53.834,62.807a.69.69,0,0,1-1.113.116,5.9,5.9,0,0,1,.018-7.935.691.691,0,0,1,1.114.121l1.994,3.51a.692.692,0,0,1,0,.688Zm3.252,2.061a5.886,5.886,0,0,1-1.237-.131.691.691,0,0,1-.447-1.02l2.009-3.495a.69.69,0,0,1,.6-.346h4.025a.69.69,0,0,1,.66.9A5.9,5.9,0,0,1,57.086,64.868Zm.328-7.16-1.988-3.5a.691.691,0,0,1,.45-1.018,5.885,5.885,0,0,1,6.817,3.971.69.69,0,0,1-.66.9H58.015A.689.689,0,0,1,57.414,57.709Z" transform="translate(-48 -49.966)" fill="#f5f5f7"/>
</svg>
