<svg xmlns="http://www.w3.org/2000/svg" width="17.999" height="18" viewBox="0 0 17.999 18">
  <g id="person-circle-outline" transform="translate(-47.981 -47.981)">
    <path id="Path_149" data-name="Path 149" d="M57.106,47.982a9,9,0,1,0,8.873,8.875A9.012,9.012,0,0,0,57.106,47.982Zm5.47,14.159a.173.173,0,0,1-.266-.014,5.377,5.377,0,0,0-1.4-1.28,7.591,7.591,0,0,0-7.86,0,5.375,5.375,0,0,0-1.4,1.28.173.173,0,0,1-.266.014,7.585,7.585,0,0,1-2.02-5.029,7.615,7.615,0,1,1,15.229-.13,7.585,7.585,0,0,1-2.02,5.159Z" transform="translate(0)" fill="#fff"/>
    <path id="Path_150" data-name="Path 150" d="M190.953,144a2.859,2.859,0,0,0-2.933,3.148,2.937,2.937,0,1,0,5.866,0,2.906,2.906,0,0,0-.765-2.242A2.938,2.938,0,0,0,190.953,144Z" transform="translate(-133.972 -91.865)" fill="#fff"/>
  </g>
</svg>
