<svg xmlns="http://www.w3.org/2000/svg" width="14.877" height="18" viewBox="0 0 14.877 18">
  <g id="refresh" transform="translate(-75 -37)">
    <path id="Path_654" data-name="Path 654" d="M82.438,127.877a7.438,7.438,0,0,1,0-14.877c2.639,0,3.412.215,3.6,1a1.008,1.008,0,0,1-.584,1.13.863.863,0,0,1-1.12-.328,17.127,17.127,0,0,0-1.891-.076,5.712,5.712,0,1,0,5.712,5.712.863.863,0,0,1,1.726,0A7.447,7.447,0,0,1,82.438,127.877Z" transform="translate(0 -72.877)" fill="#f5f5f7"/>
    <path id="Path_655" data-name="Path 655" d="M235.863,45.3a.863.863,0,0,1-.61-1.473l2.677-2.677-2.677-2.677a.863.863,0,1,1,1.22-1.22l3.288,3.288a.863.863,0,0,1,0,1.22l-3.288,3.288A.86.86,0,0,1,235.863,45.3Z" transform="translate(-153.425)" fill="#f5f5f7"/>
  </g>
</svg>
