<svg xmlns="http://www.w3.org/2000/svg" width="21" height="21" viewBox="0 0 21 21">
  <g id="grid" transform="translate(-32 -32)">
    <path id="Path_268" data-name="Path 268" d="M40.063,41.75H33.688A1.688,1.688,0,0,1,32,40.062V33.687A1.688,1.688,0,0,1,33.688,32h6.375a1.688,1.688,0,0,1,1.688,1.688v6.375A1.688,1.688,0,0,1,40.063,41.75Z" fill="#f5f5f7"/>
    <path id="Path_269" data-name="Path 269" d="M280.063,41.75h-6.375A1.688,1.688,0,0,1,272,40.062V33.687A1.688,1.688,0,0,1,273.688,32h6.375a1.688,1.688,0,0,1,1.688,1.688v6.375A1.688,1.688,0,0,1,280.063,41.75Z" transform="translate(-228.75)" fill="#f5f5f7"/>
    <path id="Path_270" data-name="Path 270" d="M40.063,281.75H33.688A1.688,1.688,0,0,1,32,280.063v-6.375A1.688,1.688,0,0,1,33.688,272h6.375a1.688,1.688,0,0,1,1.688,1.688v6.375A1.688,1.688,0,0,1,40.063,281.75Z" transform="translate(0 -228.75)" fill="#f5f5f7"/>
    <path id="Path_271" data-name="Path 271" d="M280.063,281.75h-6.375A1.688,1.688,0,0,1,272,280.063v-6.375A1.688,1.688,0,0,1,273.688,272h6.375a1.688,1.688,0,0,1,1.688,1.688v6.375A1.688,1.688,0,0,1,280.063,281.75Z" transform="translate(-228.75 -228.75)" fill="#f5f5f7"/>
  </g>
</svg>
