<svg xmlns="http://www.w3.org/2000/svg" width="26" height="26" viewBox="0 0 26 26">
  <g id="lighting-icon" transform="translate(-26 -26)">
    <path id="Path_1" data-name="Path 1" d="M235.243,31.2A1.243,1.243,0,0,1,234,29.957V27.243a1.243,1.243,0,1,1,2.487,0v2.713A1.243,1.243,0,0,1,235.243,31.2Z" transform="translate(-196.244)" fill="#f5f5f7"/>
    <path id="Path_2" data-name="Path 2" d="M235.243,399.2A1.243,1.243,0,0,1,234,397.957v-2.713a1.243,1.243,0,0,1,2.487,0v2.713a1.244,1.244,0,0,1-1.243,1.243Z" transform="translate(-196.244 -347.2)" fill="#f5f5f7"/>
    <path id="Path_3" data-name="Path 3" d="M348.386,91.33a1.243,1.243,0,0,1-.88-2.122l1.918-1.918a1.243,1.243,0,1,1,1.758,1.758l-1.918,1.918A1.239,1.239,0,0,1,348.386,91.33Z" transform="translate(-302.991 -57.482)" fill="#f5f5f7"/>
    <path id="Path_4" data-name="Path 4" d="M88.166,351.541a1.243,1.243,0,0,1-.879-2.123l1.918-1.918a1.243,1.243,0,1,1,1.758,1.758l-1.918,1.918A1.24,1.24,0,0,1,88.166,351.541Z" transform="translate(-57.479 -302.984)" fill="#f5f5f7"/>
    <path id="Path_5" data-name="Path 5" d="M397.957,236.487h-2.713a1.243,1.243,0,0,1,0-2.487h2.713a1.243,1.243,0,1,1,0,2.487Z" transform="translate(-347.2 -196.244)" fill="#f5f5f7"/>
    <path id="Path_6" data-name="Path 6" d="M29.957,236.487H27.243a1.243,1.243,0,1,1,0-2.487h2.713a1.243,1.243,0,1,1,0,2.487Z" transform="translate(0 -196.244)" fill="#f5f5f7"/>
    <path id="Path_7" data-name="Path 7" d="M350.3,351.541a1.24,1.24,0,0,1-.879-.365l-1.918-1.918a1.243,1.243,0,1,1,1.758-1.758l1.918,1.918a1.243,1.243,0,0,1-.879,2.123Z" transform="translate(-302.984 -302.984)" fill="#f5f5f7"/>
    <path id="Path_8" data-name="Path 8" d="M90.087,91.33a1.237,1.237,0,0,1-.879-.364l-1.918-1.918a1.243,1.243,0,1,1,1.758-1.758l1.918,1.918a1.243,1.243,0,0,1-.879,2.122Z" transform="translate(-57.482 -57.481)" fill="#f5f5f7"/>
    <path id="Path_9" data-name="Path 9" d="M159.765,165.53a5.765,5.765,0,1,1,5.765-5.765A5.765,5.765,0,0,1,159.765,165.53Z" transform="translate(-120.765 -120.765)" fill="#f5f5f7"/>
  </g>
</svg>
