<svg xmlns="http://www.w3.org/2000/svg" width="21.995" height="24" viewBox="0 0 21.995 24">
  <path id="tags" d="M21.526,8.284,13.937.879A3,3,0,0,0,11.409.028L4.521.97a1,1,0,1,0,.272,1.981l6.889-.942a1.012,1.012,0,0,1,.851.292l7.59,7.4a3,3,0,0,1,.323,3.847,4.931,4.931,0,0,0-.911-1.3L12.06,4.841A3.019,3.019,0,0,0,9.532,3.99l-6.889.942a1,1,0,0,0-.858.881L1.02,12.729a2.987,2.987,0,0,0,.864,2.453L9.3,22.535A4.961,4.961,0,0,0,12.834,24h.017a4.965,4.965,0,0,0,3.543-1.487L19.561,19.3a4.967,4.967,0,0,0,1.423-3.388l.577-.576a5.014,5.014,0,0,0-.032-7.057ZM6,10A1,1,0,1,1,7,9,1,1,0,0,1,6,10Z" transform="translate(-1.002 0.001)" fill="#f5f5f7"/>
</svg>
