<svg xmlns="http://www.w3.org/2000/svg" width="44.217" height="28" viewBox="0 0 44.217 28">
  <g id="Component_169_1" data-name="Component 169 – 1" transform="translate(0 0)">
    <g id="Group_1184" data-name="Group 1184" transform="translate(140.493 10415.999)">
      <g id="dj-turntable-vinyl-disc-svgrepo-com" transform="translate(-126.276 -10417.999)">
        <circle id="Ellipse_173" data-name="Ellipse 173" cx="1" cy="1" r="1" transform="translate(15 15)"/>
        <path id="Path_1081" data-name="Path 1081" d="M16,2A14,14,0,1,0,30,16,14.041,14.041,0,0,0,16,2ZM6,17a.945.945,0,0,1-1-1A10.968,10.968,0,0,1,16,5a.945.945,0,0,1,1,1,.945.945,0,0,1-1,1,8.963,8.963,0,0,0-9,9A.945.945,0,0,1,6,17Zm3,0a.945.945,0,0,1-1-1,8.024,8.024,0,0,1,8-8,.945.945,0,0,1,1,1,.945.945,0,0,1-1,1,6.018,6.018,0,0,0-6,6A.945.945,0,0,1,9,17Zm7,4a5,5,0,1,1,5-5A4.951,4.951,0,0,1,16,21Z"/>
      </g>
      <g id="dj-turntable-vinyl-disc-svgrepo-com-2" data-name="dj-turntable-vinyl-disc-svgrepo-com" transform="translate(-142.493 -10412.208)">
        <circle id="Ellipse_173-2" data-name="Ellipse 173" cx="0.726" cy="0.726" r="0.726" transform="translate(11.433 11.433)"/>
        <path id="Path_1081-2" data-name="Path 1081" d="M12.158,2A10.158,10.158,0,1,0,22.316,12.158,10.188,10.188,0,0,0,12.158,2ZM4.9,12.884a.686.686,0,0,1-.726-.726,7.958,7.958,0,0,1,7.981-7.981.686.686,0,0,1,.726.726.686.686,0,0,1-.726.726,6.5,6.5,0,0,0-6.53,6.53A.686.686,0,0,1,4.9,12.884Zm2.177,0a.686.686,0,0,1-.726-.726,5.822,5.822,0,0,1,5.8-5.8.686.686,0,0,1,.726.726.686.686,0,0,1-.726.726A4.366,4.366,0,0,0,7.8,12.158.686.686,0,0,1,7.079,12.884Zm5.079,2.9a3.628,3.628,0,1,1,3.628-3.628A3.593,3.593,0,0,1,12.158,15.786Z"/>
      </g>
    </g>
  </g>
</svg>
