<svg xmlns="http://www.w3.org/2000/svg" width="18" height="15.429" viewBox="0 0 18 15.429">
  <g id="volume-mute" transform="translate(-32 -64)">
    <path id="Line_102" data-name="Line 102" d="M-1.214-.571A.641.641,0,0,1-1.669-.76L-15.812-14.9a.643.643,0,0,1,0-.909.643.643,0,0,1,.909,0L-.76-1.669a.643.643,0,0,1,0,.909A.641.641,0,0,1-1.214-.571Z" transform="translate(48.643 80)" fill="#f5f5f7"/>
    <path id="Path_649" data-name="Path 649" d="M187.982,96.111a.96.96,0,0,0-1.027.073l-.027.02-1.146.938a.321.321,0,0,0-.024.476l2.183,2.183a.321.321,0,0,0,.549-.227V96.983A.985.985,0,0,0,187.982,96.111Z" transform="translate(-147.492 -30.71)" fill="#f5f5f7"/>
    <path id="Path_650" data-name="Path 650" d="M40.812,182.4,34.6,176.188a.643.643,0,0,0-.454-.188h-1.18a.964.964,0,0,0-.964.964v4.5a.964.964,0,0,0,.964.964h2.8l3.7,3.026a.96.96,0,0,0,1.039.068.985.985,0,0,0,.5-.866v-1.8a.643.643,0,0,0-.188-.454Z" transform="translate(0 -107.5)" fill="#f5f5f7"/>
    <path id="Path_651" data-name="Path 651" d="M305.925,179.216a6.176,6.176,0,0,0-.713-2.864.643.643,0,0,0-1.145.585,4.917,4.917,0,0,1,.573,2.279q0,.161-.012.327a.321.321,0,0,0,.093.251l.577.577a.321.321,0,0,0,.544-.173A5.865,5.865,0,0,0,305.925,179.216Z" transform="translate(-261.068 -107.502)" fill="#f5f5f7"/>
    <path id="Path_652" data-name="Path 652" d="M354.569,133.14a8.714,8.714,0,0,0-1.373-4.824.643.643,0,1,0-1.111.648,7.463,7.463,0,0,1,1.2,4.176,7.3,7.3,0,0,1-.376,2.437.321.321,0,0,0,.076.332l.5.5a.321.321,0,0,0,.528-.112A8.413,8.413,0,0,0,354.569,133.14Z" transform="translate(-307.14 -61.426)" fill="#f5f5f7"/>
    <path id="Path_653" data-name="Path 653" d="M403.191,87.058a11.52,11.52,0,0,0-2.029-6.775.643.643,0,1,0-1.085.692,10.341,10.341,0,0,1,1.829,6.083A10.143,10.143,0,0,1,401,91.5a.321.321,0,0,0,.064.362l.479.479a.321.321,0,0,0,.519-.087A11.324,11.324,0,0,0,403.191,87.058Z" transform="translate(-353.191 -15.344)" fill="#f5f5f7"/>
  </g>
</svg>
