<svg xmlns="http://www.w3.org/2000/svg" width="26" height="20.429" viewBox="0 0 26 20.429">
  <g id="volume-high" transform="translate(-32 -79.986)">
    <path id="Path_645" data-name="Path 645" d="M43.607,114.584a1.386,1.386,0,0,1-.824-.272.482.482,0,0,1-.038-.03l-5.3-4.342H33.393A1.393,1.393,0,0,1,32,108.548v-6.5a1.393,1.393,0,0,1,1.393-1.393h4.048l5.3-4.342a.476.476,0,0,1,.038-.03A1.393,1.393,0,0,1,45,97.406v15.786A1.393,1.393,0,0,1,43.607,114.584ZM37.445,109.941ZM37.429,100.664Z" transform="translate(0 -15.097)" fill="#f5f5f7"/>
    <path id="Path_646" data-name="Path 646" d="M304.932,185.283a.929.929,0,0,1-.829-1.346,7.319,7.319,0,0,0,.83-3.3,7.107,7.107,0,0,0-.827-3.292.928.928,0,1,1,1.654-.844,8.927,8.927,0,0,1,1.029,4.136,9.2,9.2,0,0,1-1.027,4.132A.929.929,0,0,1,304.932,185.283Z" transform="translate(-256.218 -90.438)" fill="#f5f5f7"/>
    <path id="Path_647" data-name="Path 647" d="M352.925,142.855a.929.929,0,0,1-.8-1.393,10.951,10.951,0,0,0,1.733-6.036,10.78,10.78,0,0,0-1.731-6.032.929.929,0,1,1,1.6-.936,12.586,12.586,0,0,1,1.984,6.968,12.773,12.773,0,0,1-1.981,6.964A.929.929,0,0,1,352.925,142.855Z" transform="translate(-301.425 -45.225)" fill="#f5f5f7"/>
    <path id="Path_648" data-name="Path 648" d="M400.925,100.415a.929.929,0,0,1-.777-1.436,14.654,14.654,0,0,0,2.634-8.778,14.945,14.945,0,0,0-2.64-8.786.929.929,0,1,1,1.567-1,17.8,17.8,0,0,1-.006,19.578A.929.929,0,0,1,400.925,100.415Z" transform="translate(-346.639)" fill="#f5f5f7"/>
  </g>
</svg>
