<svg xmlns="http://www.w3.org/2000/svg" xmlns:xlink="http://www.w3.org/1999/xlink" width="186.294" height="186.293" viewBox="0 0 186.294 186.293">
  <defs>
    <linearGradient id="linear-gradient" x1="0.138" y1="0.925" x2="1.035" y2="-0.247" gradientUnits="objectBoundingBox">
      <stop offset="0" stop-color="#6c4bf3"/>
      <stop offset="0.806" stop-color="#fe00ff"/>
      <stop offset="1" stop-color="#fea800"/>
    </linearGradient>
  </defs>
  <g id="calendar" transform="translate(-32 -32.001)">
    <path id="Path_214" data-name="Path 214" d="M218.294,71.921A26.613,26.613,0,0,0,191.68,45.308h-6.653V38.841a6.784,6.784,0,0,0-6.333-6.832,6.653,6.653,0,0,0-6.974,6.645v6.653H78.573V38.841a6.784,6.784,0,0,0-6.333-6.832,6.653,6.653,0,0,0-6.974,6.645v6.653H58.613A26.613,26.613,0,0,0,32,71.921v4.99a1.663,1.663,0,0,0,1.663,1.663H216.631a1.663,1.663,0,0,0,1.663-1.663Z" transform="translate(0 0)" fill="url(#linear-gradient)"/>
    <path id="Path_215" data-name="Path 215" d="M32,275.8a26.614,26.614,0,0,0,26.613,26.613H191.68A26.614,26.614,0,0,0,218.294,275.8V177.248A1.247,1.247,0,0,0,217.046,176H33.247A1.247,1.247,0,0,0,32,177.248Zm143.047-86.494a9.98,9.98,0,1,1-9.98,9.98A9.98,9.98,0,0,1,175.047,189.307Zm0,33.267a9.98,9.98,0,1,1-9.98,9.98A9.98,9.98,0,0,1,175.047,222.573ZM141.78,189.307a9.98,9.98,0,1,1-9.98,9.98A9.98,9.98,0,0,1,141.78,189.307Zm0,33.267a9.98,9.98,0,1,1-9.98,9.98A9.98,9.98,0,0,1,141.78,222.573Zm0,33.267a9.98,9.98,0,1,1-9.98,9.98A9.98,9.98,0,0,1,141.78,255.84Zm-33.267-33.267a9.98,9.98,0,1,1-9.98,9.98A9.98,9.98,0,0,1,108.514,222.573Zm0,33.267a9.98,9.98,0,1,1-9.98,9.98A9.98,9.98,0,0,1,108.514,255.84ZM75.247,222.573a9.98,9.98,0,1,1-9.98,9.98A9.98,9.98,0,0,1,75.247,222.573Zm0,33.267a9.98,9.98,0,1,1-9.98,9.98A9.98,9.98,0,0,1,75.247,255.84Z" transform="translate(0 -84.119)" fill="url(#linear-gradient)"/>
  </g>
</svg>
