<svg xmlns="http://www.w3.org/2000/svg" xmlns:xlink="http://www.w3.org/1999/xlink" width="185" height="185" viewBox="0 0 185 185">
  <defs>
    <linearGradient id="linear-gradient" x1="0.138" y1="0.925" x2="1.035" y2="-0.247" gradientUnits="objectBoundingBox">
      <stop offset="0" stop-color="#6c4bf3"/>
      <stop offset="0.806" stop-color="#fe00ff"/>
      <stop offset="1" stop-color="#fea800"/>
    </linearGradient>
  </defs>
  <g id="Group_1421" data-name="Group 1421" transform="translate(16112 -2040)">
    <path id="Union_18" data-name="Union 18" d="M73.859,183.121A91.994,91.994,0,0,1,40.783,169.2a92.771,92.771,0,0,1-33.513-40.7,91.99,91.99,0,0,1-5.39-17.364,93.4,93.4,0,0,1,0-37.283A91.994,91.994,0,0,1,15.8,40.783a92.771,92.771,0,0,1,40.7-33.513,91.99,91.99,0,0,1,17.364-5.39,93.4,93.4,0,0,1,37.283,0A91.995,91.995,0,0,1,144.218,15.8a92.772,92.772,0,0,1,33.513,40.7,91.991,91.991,0,0,1,5.39,17.364,93.4,93.4,0,0,1,0,37.283A91.994,91.994,0,0,1,169.2,144.218a92.772,92.772,0,0,1-40.7,33.513,91.991,91.991,0,0,1-17.364,5.39,93.4,93.4,0,0,1-37.283,0ZM64.67,26.618A71.735,71.735,0,1,0,92.5,21,71.5,71.5,0,0,0,64.67,26.618Zm23.3,86.945a6.968,6.968,0,0,1-3.3-2.33q-.107-.138-.207-.279A7.467,7.467,0,0,1,83,106.5v-65a7.5,7.5,0,0,1,15,0V91.936l39.887-31.163a7,7,0,0,1,8.619,11.032l-49.8,38.908a7.51,7.51,0,0,1-8.735,2.849Z" transform="translate(-16112 2040)" fill="url(#linear-gradient)"/>
  </g>
</svg>
