<svg xmlns="http://www.w3.org/2000/svg" xmlns:xlink="http://www.w3.org/1999/xlink" width="123.692" height="152.277" viewBox="0 0 123.692 152.277"><defs><linearGradient id="a" x1="0.138" y1="0.925" x2="1.035" y2="-0.247" gradientUnits="objectBoundingBox"><stop offset="0" stop-color="#6c4bf3"/><stop offset="0.806" stop-color="#fe00ff"/><stop offset="1" stop-color="#fea800"/></linearGradient></defs><g transform="translate(-48)"><path d="M199.02,0H132.4A19.034,19.034,0,0,0,114,14.276h67.8a22,22,0,0,1,22,22v90.667l6.541,5.234a4.759,4.759,0,0,0,5.748.146,4.879,4.879,0,0,0,1.98-3.991V19.034A19.034,19.034,0,0,0,199.02,0Z" transform="translate(-46.381 0)" fill="url(#a)"/><path d="M128.877,80H67.035A19.034,19.034,0,0,0,48,99.034V203.6a4.866,4.866,0,0,0,1.961,3.978,4.758,4.758,0,0,0,5.863-.209l42.136-35.5,42.136,35.486a4.759,4.759,0,0,0,5.831.235,4.879,4.879,0,0,0,1.992-4V99.034A19.034,19.034,0,0,0,128.877,80Z" transform="translate(0 -56.207)" fill="url(#a)"/></g></svg>