<svg xmlns="http://www.w3.org/2000/svg" xmlns:xlink="http://www.w3.org/1999/xlink" width="228.069" height="291.02" viewBox="0 0 228.069 291.02"><defs><linearGradient id="a" x1="0.138" y1="0.925" x2="1.035" y2="-0.247" gradientUnits="objectBoundingBox"><stop offset="0" stop-color="#6c4bf3"/><stop offset="0.806" stop-color="#fe00ff"/><stop offset="1" stop-color="#fea800"/></linearGradient></defs><g transform="translate(-55.042 0.522)"><g transform="translate(55.542 0.001)"><path d="M55.542,281.347v67.178c0,18.447,14.06,35.053,36.494,46.666V310.859C75.866,303.166,63.219,293.043,55.542,281.347Z" transform="translate(-55.542 -122)" stroke="#9b9bac" stroke-width="1" fill="url(#a)"/><path d="M144.445,428.262c15.961,6,34.8,9.771,55.1,10.567V353.436a188.121,188.121,0,0,1-55.1-9.958Z" transform="translate(-94.093 -148.941)" stroke="#9b9bac" stroke-width="1" fill="url(#a)"/><path d="M266.2,438.925c21.186-.593,40.841-4.442,57.4-10.659V343.479c-16.792,5.9-36.316,9.477-57.4,10.037Z" transform="translate(-146.889 -148.942)" stroke="#9b9bac" stroke-width="1" fill="url(#a)"/><path d="M392.024,310.859v84.323c22.435-11.6,36.494-28.21,36.494-46.657V281.347C420.846,293.043,408.2,303.166,392.024,310.859Z" transform="translate(-201.449 -122)" stroke="#9b9bac" stroke-width="1" fill="url(#a)"/><path d="M254.288,248.477a11.96,11.96,0,1,0,16.873-1.162A11.956,11.956,0,0,0,254.288,248.477Z" transform="translate(-140.446 -105.967)" stroke="#9b9bac" stroke-width="1" fill="url(#a)"/><path d="M305.643,139.449,289.01,162.931l5.261,4.583,20.983-19.691a250.669,250.669,0,0,0,17.506-18.148L377.3,78.562a7.283,7.283,0,0,0-.705-10.277l-.539-.473a7.29,7.29,0,0,0-10.277.706l-44.54,51.111A251.7,251.7,0,0,0,305.643,139.449Z" transform="translate(-156.78 -28.629)" stroke="#9b9bac" stroke-width="1" fill="url(#a)"/><path d="M198.46,220.279a11.962,11.962,0,1,0,6.337,15.685A11.964,11.964,0,0,0,198.46,220.279Z" transform="translate(-110.301 -95.106)" stroke="#9b9bac" stroke-width="1" fill="url(#a)"/><path d="M275.62,128.928c-1.253,2.953-2.588,5.881-3.957,8.8a180.283,180.283,0,0,1,32.54,4.458c1.07-1.278,2.142-2.551,3.233-3.8l8.477-9.73A181.067,181.067,0,0,0,278.6,121.9Z" transform="translate(-149.258 -52.859)" stroke="#9b9bac" stroke-width="1" fill="url(#a)"/><path d="M282.611,185.015c0-16.494-11.239-31.52-29.657-42.817l-10.46,12c.3.157.612.315.906.481,15.87,8.879,24.973,19.94,24.973,30.333s-9.1,21.458-24.973,30.342c-19.266,10.775-46.354,16.963-74.326,16.963s-55.056-6.188-74.32-16.963c-15.872-8.884-24.977-19.94-24.977-30.342s9.105-21.454,24.977-30.333c13.426-7.515,30.659-12.79,49.336-15.3,1.819-5.719,3.838-11.414,6.057-17.008-53.689,5.048-94.606,31.163-94.606,62.641,0,35.09,50.832,63.536,113.533,63.536S282.611,220.105,282.611,185.015Z" transform="translate(-55.542 -53.065)" stroke="#9b9bac" stroke-width="1" fill="url(#a)"/><path d="M216.3,120.729,230.149,95.5a250.5,250.5,0,0,0,11.009-22.694l26.488-62.4A7.28,7.28,0,0,0,263.789.859L263.13.581a7.283,7.283,0,0,0-9.549,3.857l-26.489,62.4a251.822,251.822,0,0,0-8.681,23.681L209.882,118Z" transform="translate(-122.468 -0.001)" stroke="#9b9bac" stroke-width="1" fill="url(#a)"/></g></g></svg>