<svg xmlns="http://www.w3.org/2000/svg" xmlns:xlink="http://www.w3.org/1999/xlink" width="88.146" height="127.301" viewBox="0 0 88.146 127.301"><defs><linearGradient id="a" x1="0.138" y1="0.925" x2="1.035" y2="-0.247" gradientUnits="objectBoundingBox"><stop offset="0" stop-color="#6c4bf3"/><stop offset="0.806" stop-color="#fe00ff"/><stop offset="1" stop-color="#fea800"/></linearGradient></defs><g transform="translate(-111.999 -48.002)"><path d="M28.069-6.209H-11.107A4.9,4.9,0,0,1-16-11.1,4.9,4.9,0,0,1-11.1-16H28.076a4.9,4.9,0,0,1,4.9,4.9,4.9,4.9,0,0,1-4.9,4.893Z" transform="translate(147.591 181.506)" fill="url(#a)"/><path d="M156.072,250.9A44.118,44.118,0,0,1,112,206.835v-9.791a4.9,4.9,0,1,1,9.791,0v9.791a34.278,34.278,0,1,0,68.557,0v-9.791a4.9,4.9,0,1,1,9.791,0v9.791A44.118,44.118,0,0,1,156.072,250.9Z" transform="translate(0 -100.088)" fill="url(#a)"/><path d="M-11.1,18.278a4.9,4.9,0,0,1-4.9-4.9V-11.1A4.9,4.9,0,0,1-11.1-16a4.9,4.9,0,0,1,4.9,4.9V13.38a4.9,4.9,0,0,1-4.9,4.9Z" transform="translate(167.18 157.025)" fill="url(#a)"/><path d="M200.481,131.228a24.123,24.123,0,0,1-17.309-7.378A24.753,24.753,0,0,1,176,106.437V72.487a24.484,24.484,0,0,1,48.968,0v33.951A24.669,24.669,0,0,1,200.481,131.228Z" transform="translate(-44.409 0)" fill="url(#a)"/></g></svg>