<svg xmlns="http://www.w3.org/2000/svg" xmlns:xlink="http://www.w3.org/1999/xlink" width="154.019" height="154.019" viewBox="0 0 154.019 154.019"><defs><linearGradient id="a" x1="0.138" y1="0.925" x2="1.035" y2="-0.247" gradientUnits="objectBoundingBox"><stop offset="0" stop-color="#6c4bf3"/><stop offset="0.806" stop-color="#fe00ff"/><stop offset="1" stop-color="#fea800"/></linearGradient></defs><path d="M18.5,57.008h11v93.5a5.5,5.5,0,0,1-11,0Zm55.008,93.509a5.5,5.5,0,1,0,11,0V101.011h-11ZM84.5,7.5a5.5,5.5,0,1,0-11,0V57.008h11Zm44,143.014a5.5,5.5,0,1,0,11,0V57.008h-11Zm16.5-132.01h-22a11,11,0,0,0-11,11V40.5a11,11,0,0,0,11,11h22a11,11,0,0,0,11-11v-11a11,11,0,0,0-11-11Zm-55,44h-22a11,11,0,0,0-11,11v11a11,11,0,0,0,11,11h22a11,11,0,0,0,11-11v-11A11,11,0,0,0,90.007,62.5Zm-55-44H13a11,11,0,0,0-11,11v11a11,11,0,0,0,11,11h22a11,11,0,0,0,11-11v-11A11,11,0,0,0,35.006,18.5Zm104.507-11a5.5,5.5,0,0,0-11,0V13h11ZM29.5,7.5a5.5,5.5,0,1,0-11,0V13h11Z" transform="translate(-2 -2)" fill="url(#a)"/></svg>