<svg xmlns="http://www.w3.org/2000/svg" xmlns:xlink="http://www.w3.org/1999/xlink" width="220.266" height="132.492" viewBox="0 0 220.266 132.492"><defs><linearGradient id="a" x1="0.138" y1="0.925" x2="1.035" y2="-0.247" gradientUnits="objectBoundingBox"><stop offset="0" stop-color="#6c4bf3"/><stop offset="0.806" stop-color="#fe00ff"/><stop offset="1" stop-color="#fea800"/></linearGradient></defs><g transform="translate(16686.967 -2798.01)"><path d="M91.575,129.271a13.022,13.022,0,0,1-1.431-1.238L52.761,89.982,24.474,118.269A14.336,14.336,0,0,1,4.2,98L41.851,60.343a14.272,14.272,0,0,1,8.172-4.065,8.1,8.1,0,0,1,.9-.1,14.406,14.406,0,0,1,3.963.256q.419.057.873.126c2.007.583,7.14,2.858,8.9,4.622l36.607,36.607,71.579-69.122h-31.5a14.336,14.336,0,0,1,0-28.672h60.366c2.059,0,8.9,2.4,10.9,3.284l.271.189a14.226,14.226,0,0,1,3.7,2.761c3.208,3.323,3.455,3.4,3.674,11.3-.049.328-.111.672-.186,1.027a14.505,14.505,0,0,1,.074,1.465V80.388a14.336,14.336,0,1,1-28.671,0v-30.1l-80.988,78.209a14.248,14.248,0,0,1-18.919.776Z" transform="translate(-16686.967 2798.01)" fill="url(#a)"/></g></svg>