<svg xmlns="http://www.w3.org/2000/svg" xmlns:xlink="http://www.w3.org/1999/xlink" width="195.198" height="193.294" viewBox="0 0 195.198 193.294"><defs><linearGradient id="a" x1="0.138" y1="0.925" x2="1.035" y2="-0.247" gradientUnits="objectBoundingBox"><stop offset="0" stop-color="#6c4bf3"/><stop offset="0.806" stop-color="#fe00ff"/><stop offset="1" stop-color="#fea800"/></linearGradient></defs><path d="M243.2,143.7a4.962,4.962,0,0,0-4.393-4.662l-12.03-1.944a2.546,2.546,0,0,1-2.148-2.148c-.226-1.482-.472-3.007-.795-4.468a2.589,2.589,0,0,1,1.235-2.75l10.741-5.94a4.855,4.855,0,0,0,2.342-6.015l-1.858-5.113a4.844,4.844,0,0,0-5.693-3.05l-11.987,2.342a2.589,2.589,0,0,1-2.728-1.321c-.7-1.31-1.461-2.642-2.256-3.953a2.631,2.631,0,0,1,.2-3.05l7.981-9.216a4.887,4.887,0,0,0,.183-6.445l-3.48-4.178a4.8,4.8,0,0,0-6.37-.935l-10.494,6.305a2.524,2.524,0,0,1-3-.3c-1.16-1.02-2.342-2-3.459-2.9a2.556,2.556,0,0,1-.806-2.911l4.3-11.45a4.855,4.855,0,0,0-2.019-6.133L191.93,60.7a4.833,4.833,0,0,0-6.316,1.332L177.945,71.7a2.148,2.148,0,0,1-2.632.806c-.29-.118-2.707-1.074-4.586-1.74a2.546,2.546,0,0,1-1.751-2.449l.183-12.234a4.92,4.92,0,0,0-4.017-5.1l-5.371-.934a4.9,4.9,0,0,0-5.51,3.362l-3.985,11.643a2.567,2.567,0,0,1-2.513,1.708h-4.576a2.578,2.578,0,0,1-2.492-1.719l-3.974-11.579a4.909,4.909,0,0,0-5.521-3.4l-5.371.934a4.909,4.909,0,0,0-4.017,5.059l.183,12.277a2.556,2.556,0,0,1-1.815,2.46L115.711,72.5a2.546,2.546,0,0,1-2.782-.988L105.3,62.12a4.833,4.833,0,0,0-6.316-1.353l-4.715,2.739a4.866,4.866,0,0,0-2.03,6.176l4.3,11.418a2.6,2.6,0,0,1-.795,2.922c-1.139.935-2.309,1.88-3.469,2.922a2.524,2.524,0,0,1-2.975.3L78.923,80.8a4.876,4.876,0,0,0-6.391.934L69.062,85.9a4.833,4.833,0,0,0,.172,6.445l8.013,9.205a2.546,2.546,0,0,1,.215,3.029c-.806,1.278-1.568,2.621-2.266,3.963a2.6,2.6,0,0,1-2.75,1.321L60.48,107.555a4.855,4.855,0,0,0-5.693,3.05l-1.88,5.1a4.866,4.866,0,0,0,2.342,6.026l10.741,5.94a2.524,2.524,0,0,1,1.246,2.782l-.107.591c-.247,1.31-.473,2.546-.687,3.867a2.567,2.567,0,0,1-2.095,2.148L52.3,139a4.887,4.887,0,0,0-4.3,4.823v5.435a4.812,4.812,0,0,0,4.3,4.812l12.052,1.944a2.535,2.535,0,0,1,2.148,2.148c.226,1.482.473,3.007.795,4.468a2.588,2.588,0,0,1-1.235,2.75l-10.687,5.94a4.855,4.855,0,0,0-2.342,6.015l1.88,5.113A4.844,4.844,0,0,0,60.6,185.5l11.987-2.32a2.578,2.578,0,0,1,2.728,1.321c.709,1.31,1.461,2.642,2.256,3.953a2.621,2.621,0,0,1-.2,3.05l-7.981,9.205a4.887,4.887,0,0,0-.236,6.445l3.48,4.178A4.8,4.8,0,0,0,79,212.27l10.494-6.305a2.524,2.524,0,0,1,3,.3c1.16,1.02,2.342,2,3.459,2.9a2.567,2.567,0,0,1,.816,2.911l-4.3,11.45a4.855,4.855,0,0,0,2.019,6.133l4.748,2.739a4.833,4.833,0,0,0,6.316-1.321l7.766-9.549a2.255,2.255,0,0,1,2.449-.859c1.633.677,2.728,1.074,4.662,1.708a2.557,2.557,0,0,1,1.762,2.449l-.269,12.32a4.93,4.93,0,0,0,4.017,5.1l5.371.934a4.9,4.9,0,0,0,5.51-3.362L140.8,228.2a2.556,2.556,0,0,1,2.513-1.708H147.9a2.578,2.578,0,0,1,2.492,1.719l3.974,11.579a4.92,4.92,0,0,0,4.694,3.48,4.576,4.576,0,0,0,.838-.075l5.371-.934a4.909,4.909,0,0,0,4.017-5.059l-.183-12.277a2.546,2.546,0,0,1,1.762-2.438c1.8-.6,3.072-1.074,4.178-1.525l.279-.107a2.052,2.052,0,0,1,2.567.612l7.862,9.667a4.833,4.833,0,0,0,6.305,1.321l4.726-2.739a4.855,4.855,0,0,0,2.019-6.144l-4.3-11.418a2.589,2.589,0,0,1,.795-2.921c1.138-.935,2.309-1.88,3.469-2.922a2.524,2.524,0,0,1,3-.29l10.5,6.284a4.876,4.876,0,0,0,6.337-.934l3.469-4.178a4.834,4.834,0,0,0-.172-6.445l-8-9.227a2.546,2.546,0,0,1-.215-3.029c.806-1.267,1.568-2.61,2.266-3.963a2.6,2.6,0,0,1,2.75-1.321l11.955,2.331a4.855,4.855,0,0,0,5.693-3.05l1.858-5.1a4.866,4.866,0,0,0-2.342-6.026l-10.741-5.94a2.535,2.535,0,0,1-1.224-2.76l.107-.591c.247-1.31.473-2.546.687-3.867a2.567,2.567,0,0,1,2.095-2.148l12.051-1.944a4.9,4.9,0,0,0,4.3-4.823ZM110.673,187.812a7.411,7.411,0,0,1-11.955,1.246,63.372,63.372,0,0,1,.193-85.231,7.422,7.422,0,0,1,11.966,1.3l21.418,37.7a7.433,7.433,0,0,1,0,7.39ZM145.6,209.95a63.217,63.217,0,0,1-13.287-1.407,7.422,7.422,0,0,1-4.8-10.956l21.579-37.54a7.411,7.411,0,0,1,6.445-3.716h43.233A7.411,7.411,0,0,1,205.861,166,63.372,63.372,0,0,1,145.6,209.95Zm3.523-76.906L127.773,95.449a7.422,7.422,0,0,1,4.833-10.934,63.212,63.212,0,0,1,73.222,42.653,7.411,7.411,0,0,1-7.089,9.667H155.582a7.4,7.4,0,0,1-6.456-3.781Z" transform="translate(-47.999 -49.974)" fill="url(#a)"/></svg>