<svg xmlns="http://www.w3.org/2000/svg" xmlns:xlink="http://www.w3.org/1999/xlink" width="201.999" height="153" viewBox="0 0 201.999 153"><defs><linearGradient id="a" x1="0.138" y1="0.925" x2="1.035" y2="-0.247" gradientUnits="objectBoundingBox"><stop offset="0" stop-color="#6c4bf3"/><stop offset="0.806" stop-color="#fe00ff"/><stop offset="1" stop-color="#fea800"/></linearGradient></defs><path d="M159.55,153h0a10.176,10.176,0,0,1-4.16-.887l-.021-.008-.066-.032a10.232,10.232,0,0,1-3.3-2.412l-32.2-35.309a10.334,10.334,0,0,1,.63-14.549,10.209,10.209,0,0,1,14.478.633l14.4,15.79V52.961a10.247,10.247,0,1,1,20.493,0v63.268l14.4-15.793a10.205,10.205,0,0,1,14.476-.633,10.334,10.334,0,0,1,.63,14.549l-32.2,35.309a10.27,10.27,0,0,1-3.3,2.415.5.5,0,0,0-.066.029.093.093,0,0,0-.024.011,10.207,10.207,0,0,1-4.16.884Zm-149.3-23.539a10.3,10.3,0,0,1,0-20.6H74.652a10.3,10.3,0,0,1,0,20.6Zm0-54.434a10.3,10.3,0,0,1,0-20.594h96.61a10.3,10.3,0,0,1,0,20.594Zm0-54.431a10.3,10.3,0,0,1,0-20.6H139.059a10.3,10.3,0,0,1,0,20.6Z" fill="url(#a)"/></svg>