<svg xmlns="http://www.w3.org/2000/svg" xmlns:xlink="http://www.w3.org/1999/xlink" width="169.549" height="255.732" viewBox="0 0 169.549 255.732"><defs><linearGradient id="a" x1="0.138" y1="0.925" x2="1.035" y2="-0.247" gradientUnits="objectBoundingBox"><stop offset="0" stop-color="#6c4bf3"/><stop offset="0.806" stop-color="#fe00ff"/><stop offset="1" stop-color="#fea800"/></linearGradient></defs><path d="M147.859,75.217c-19.1-14-38.7-31.258-52.653-52.182L82.994,4.718A10.6,10.6,0,0,0,63.581,10.6v166.26a41.9,41.9,0,0,0-21.194-5.895,42.387,42.387,0,1,0,42.387,42.386V45.39c14.974,18.927,33.7,34.567,50.552,46.923a31.791,31.791,0,0,1-18.762,57.454,10.6,10.6,0,0,0,0,21.194,52.987,52.987,0,0,0,31.294-95.744Z" transform="translate(0 -0.003)" fill="url(#a)"/></svg>