<svg xmlns="http://www.w3.org/2000/svg" xmlns:xlink="http://www.w3.org/1999/xlink" width="140.783" height="140.783" viewBox="0 0 140.783 140.783">
  <defs>
    <linearGradient id="linear-gradient" y1="1.137" x2="0.88" gradientUnits="objectBoundingBox">
      <stop offset="0" stop-color="#6c4bf3"/>
      <stop offset="0.365" stop-color="#fe00ff"/>
      <stop offset="0.587" stop-color="#fe16de"/>
      <stop offset="1" stop-color="#fea800"/>
    </linearGradient>
  </defs>
  <path id="Path_1165" data-name="Path 1165" d="M69.892,0a69.892,69.892,0,1,0,69.892,69.892A69.892,69.892,0,0,0,69.892,0Zm32.054,100.8a4.351,4.351,0,0,1-5.993,1.442c-16.416-10.021-37.069-12.292-61.4-6.727a4.36,4.36,0,0,1-1.939-8.5c26.629-6.081,49.466-3.468,67.882,7.793a4.368,4.368,0,0,1,1.45,5.993ZM110.5,81.773a5.452,5.452,0,0,1-7.5,1.791C84.219,72.023,55.581,68.677,33.356,75.422A5.46,5.46,0,0,1,30.193,64.99c25.379-7.7,56.935-3.966,78.506,9.287a5.452,5.452,0,0,1,1.8,7.5Zm.734-19.814c-22.523-13.384-59.687-14.616-81.2-8.09a6.536,6.536,0,0,1-3.792-12.511c24.68-7.487,65.724-6.046,91.663,9.348a6.542,6.542,0,0,1-6.675,11.253Z" transform="translate(0.5 0.5)" stroke="rgba(0,0,0,0)" stroke-miterlimit="10" stroke-width="1" fill="url(#linear-gradient)"/>
</svg>
