<svg id="spotlight-icon" xmlns="http://www.w3.org/2000/svg" xmlns:xlink="http://www.w3.org/1999/xlink" width="149.927" height="149.926" viewBox="0 0 149.927 149.926">
  <defs>
    <linearGradient id="linear-gradient" x1="-3.01" y1="-2.772" x2="1.32" y2="1.256" gradientUnits="objectBoundingBox">
      <stop offset="0" stop-color="#6c4bf3"/>
      <stop offset="0.19" stop-color="#fe00ff"/>
      <stop offset="1" stop-color="#fea800"/>
    </linearGradient>
    <linearGradient id="linear-gradient-2" x1="-1.453" y1="-1.653" x2="2.747" y2="2.581" gradientUnits="objectBoundingBox">
      <stop offset="0" stop-color="#6c4bf3"/>
      <stop offset="0.193" stop-color="#fe00ff"/>
      <stop offset="1" stop-color="#fea800"/>
    </linearGradient>
    <linearGradient id="linear-gradient-3" x1="1.628" y1="-0.954" x2="0.299" y2="1.178" gradientUnits="objectBoundingBox">
      <stop offset="0" stop-color="#6c4bf3"/>
      <stop offset="0.146" stop-color="#fe00ff"/>
      <stop offset="1" stop-color="#fea800"/>
    </linearGradient>
    <linearGradient id="linear-gradient-4" x1="2.023" y1="-0.687" x2="-1.458" y2="2.666" xlink:href="#linear-gradient-3"/>
  </defs>
  <g id="Group_39" data-name="Group 39" transform="translate(0 0)">
    <path id="Path_108" data-name="Path 108" d="M357.435,392.478h44.85V368.424l-28.538-24.88Z" transform="translate(-252.359 -242.551)" fill="url(#linear-gradient)"/>
    <path id="Path_109" data-name="Path 109" d="M90.564,166.292l6.1,18.286L132.193,153.6l-15.46-13.478Z" transform="translate(-63.941 -98.93)" fill="url(#linear-gradient-2)"/>
    <path id="Path_110" data-name="Path 110" d="M97.133,140.121,0,224.8v24.054H95.78L123.3,166.291Z" transform="translate(0 -98.929)" fill="url(#linear-gradient-3)"/>
    <path id="Path_111" data-name="Path 111" d="M360.137,63.874l6.236-6.236L360.137,51.4,372.61,38.93a17.646,17.646,0,0,0-3.653-27.751V0h-8.82V8.819a17.522,17.522,0,0,0-12.472,5.166L335.193,26.458l-6.236-6.236-6.236,6.236Z" transform="translate(-227.85 0)" fill="url(#linear-gradient-4)"/>
    <path id="Path_112" data-name="Path 112" d="M17.664,51.4l-6.236,6.236,6.236,6.236L55.08,26.458l-6.236-6.236-6.236,6.236L30.136,13.985A17.584,17.584,0,0,0,17.664,8.827V0H8.845V11.184A17.654,17.654,0,0,0,5.192,38.93Z" transform="translate(-0.025 0)" fill="url(#linear-gradient-2)"/>
  </g>
</svg>
