<svg xmlns="http://www.w3.org/2000/svg" xmlns:xlink="http://www.w3.org/1999/xlink" width="200.455" height="195.798" viewBox="0 0 200.455 195.798"><defs><linearGradient id="a" x1="0.138" y1="0.925" x2="1.035" y2="-0.247" gradientUnits="objectBoundingBox"><stop offset="0" stop-color="#6c4bf3"/><stop offset="0.806" stop-color="#fe00ff"/><stop offset="1" stop-color="#fea800"/></linearGradient></defs><path d="M188.052,67.582,118.89,7.169A29.359,29.359,0,0,0,95.851.226L33.078,7.912c-4.987.611-8.474,4.727-7.789,9.191s5.282,7.586,10.268,6.973l62.782-7.687a9.894,9.894,0,0,1,7.756,2.382l69.171,60.372c9.369,8.432,10.611,21.673,2.944,31.385a40.525,40.525,0,0,0-8.3-10.606L101.784,39.493A29.549,29.549,0,0,0,78.745,32.55L15.963,40.235a8.649,8.649,0,0,0-7.819,7.188L1.171,103.846a22.917,22.917,0,0,0,7.874,20.012l67.585,59.988A48.026,48.026,0,0,0,108.838,195.8h.155a48.017,48.017,0,0,0,32.287-12.13l28.864-26.214a38.525,38.525,0,0,0,12.968-27.64l5.258-4.7c17.56-16.014,17.43-41.7-.292-57.573Zm-141.5,14c-5.033,0-9.113-3.653-9.113-8.158s4.08-8.158,9.113-8.158,9.113,3.653,9.113,8.158S51.59,81.581,46.556,81.581Z" transform="translate(-1.001 0)" fill="url(#a)"/></svg>