<svg xmlns="http://www.w3.org/2000/svg" width="24" height="17.6" viewBox="0 0 24 17.6">
  <g id="tv" transform="translate(-16 -80)">
    <path id="Path_1144" data-name="Path 1144" d="M37.593,95.2H18.407A2.41,2.41,0,0,1,16,92.793V82.407A2.41,2.41,0,0,1,18.407,80H37.593A2.41,2.41,0,0,1,40,82.407V92.793A2.41,2.41,0,0,1,37.593,95.2Z" fill="#C4120C" />
    <path id="Line_198" data-name="Line 198" d="M-2.4-14.4H-15.2a.8.8,0,0,1-.8-.8.8.8,0,0,1,.8-.8H-2.4a.8.8,0,0,1,.8.8A.8.8,0,0,1-2.4-14.4Z" transform="translate(36.8 112)" fill="#AD134E"/>
  </g>
</svg>
